<svg width="20" height="20" viewBox="0 0 20 20" fill="none" xmlns="http://www.w3.org/2000/svg">
<path fill-rule="evenodd" clip-rule="evenodd" d="M3.4377 0.9375C3.4377 0.68886 3.33893 0.450403 3.1631 0.274587C2.98728 0.098772 2.7488 0 2.50015 0C2.25149 0 2.01302 0.098772 1.8372 0.274587C1.66137 0.450403 1.56259 0.68886 1.56259 0.9375V1.5625H0.937556C0.688901 1.5625 0.45043 1.66127 0.274604 1.83709C0.0987779 2.0129 0 2.25136 0 2.5C0 2.74864 0.0987779 2.9871 0.274604 3.16291C0.45043 3.33873 0.688901 3.4375 0.937556 3.4375H1.56259V4.0625C1.56259 4.31114 1.66137 4.5496 1.8372 4.72541C2.01302 4.90123 2.25149 5 2.50015 5C2.7488 5 2.98728 4.90123 3.1631 4.72541C3.33893 4.5496 3.4377 4.31114 3.4377 4.0625V3.4375H4.06274C4.3114 3.4375 4.54987 3.33873 4.72569 3.16291C4.90152 2.9871 5.0003 2.74864 5.0003 2.5C5.0003 2.25136 4.90152 2.0129 4.72569 1.83709C4.54987 1.66127 4.3114 1.5625 4.06274 1.5625H3.4377V0.9375ZM17.9948 8.585L17.9773 8.5375L17.2898 6.7375L17.0748 7.4L16.6535 8.69375H8.348L7.92797 7.4L7.71296 6.74L7.02417 8.54625L7.01917 8.55875L7.01417 8.57125L6.99917 8.60875C6.85354 8.99927 6.83712 9.42622 6.95234 9.82676C7.06756 10.2273 7.30833 10.5803 7.63921 10.8337L7.64046 10.835L7.64421 10.8387L7.65671 10.8488L7.66921 10.8588L7.67421 10.8612L10.7669 13.1887L10.7731 13.1938L12.3132 14.3625L12.4982 14.5025L12.6808 14.3625L14.2221 13.1938L14.2296 13.1887L17.3423 10.8475L17.3498 10.8425L17.361 10.835C17.6939 10.5803 17.9358 10.225 18.0507 9.82191C18.1655 9.4188 18.1473 8.9894 17.9986 8.5975L17.9948 8.585ZM18.4836 12.335L15.3559 14.685L13.8146 15.855L12.8795 16.5662C12.7698 16.6494 12.6359 16.6944 12.4982 16.6944C12.3606 16.6944 12.2267 16.6494 12.117 16.5662L11.1794 15.855L9.63932 14.6862L6.53289 12.3487L6.51664 12.335L6.50789 12.3287C5.85145 11.8293 5.37425 11.1309 5.14759 10.3378C4.92092 9.54474 4.95696 8.69964 5.25031 7.92875L5.27156 7.87625L6.78916 3.9L6.87416 3.6775L6.92791 3.535L7.14418 2.96875L7.16543 2.9125L7.31294 2.5275C7.34847 2.43548 7.40892 2.35516 7.48752 2.29555C7.56612 2.23594 7.65976 2.1994 7.75796 2.19C7.8848 2.17657 8.01227 2.20868 8.11762 2.28058C8.22296 2.35248 8.2993 2.4595 8.333 2.5825L8.45675 2.96375L8.46175 2.98L8.70302 3.7225L8.77802 3.94875L9.71058 6.81875H15.2909L16.2247 3.94875L16.2997 3.72375L16.541 2.98L16.546 2.96375L16.6697 2.5825C16.6927 2.50148 16.7342 2.42693 16.7911 2.36478C16.8479 2.30263 16.9184 2.25459 16.9971 2.22449C17.0757 2.1944 17.1603 2.18306 17.2441 2.1914C17.3279 2.19973 17.4086 2.2275 17.4798 2.2725C17.5748 2.33335 17.6483 2.42256 17.6898 2.5275L17.8348 2.90875L17.8586 2.96875L18.0723 3.53125L18.1286 3.6775L18.2136 3.89875L19.7312 7.875L19.7512 7.93C20.0438 8.70069 20.0793 9.54535 19.8525 10.3379C19.6256 11.1304 19.1485 11.8284 18.4924 12.3275L18.4836 12.335ZM4.37526 13.75C4.62392 13.75 4.86239 13.8488 5.03821 14.0246C5.21404 14.2004 5.31282 14.4389 5.31282 14.6875V15.9375H6.56289C6.81155 15.9375 7.05002 16.0363 7.22584 16.2121C7.40167 16.3879 7.50045 16.6264 7.50045 16.875C7.50045 17.1236 7.40167 17.3621 7.22584 17.5379C7.05002 17.7137 6.81155 17.8125 6.56289 17.8125H5.31282V19.0625C5.31282 19.3111 5.21404 19.5496 5.03821 19.7254C4.86239 19.9012 4.62392 20 4.37526 20C4.12661 20 3.88813 19.9012 3.71231 19.7254C3.53648 19.5496 3.4377 19.3111 3.4377 19.0625V17.8125H2.18763C1.93898 17.8125 1.7005 17.7137 1.52468 17.5379C1.34885 17.3621 1.25007 17.1236 1.25007 16.875C1.25007 16.6264 1.34885 16.3879 1.52468 16.2121C1.7005 16.0363 1.93898 15.9375 2.18763 15.9375H3.4377V14.6875C3.4377 14.4389 3.53648 14.2004 3.71231 14.0246C3.88813 13.8488 4.12661 13.75 4.37526 13.75Z" fill="white"/>
</svg>
